# xmcd
#
# Track frame offsets:
#	150
#	12171
#	26017
#	40138
#	53099
#	66947
#	85943
#	97618
#	111139
#	125960
#	142328
#	159814
#
# Disc length: 2301 seconds
#
# Revision: 1
# Processed by: cddbd v1.5.2PL0 Copyright (c) Steve Scherf et al.
# Submitted via: audiograbber 1.83.01
#
DISCID=9a08fb0c
DTITLE=Sulino e Marrueiro - As Melhorer Rancheiras
DYEAR=1900
DGENRE=Sertanejo Raiz
TTITLE0=Punhalada Certeira
TTITLE1=Sete léguas
TTITLE2=Três dias
TTITLE3=Quatro caminhos
TTITLE4=Abismo cruel
TTITLE5=Quatro corpos
TTITLE6=Bebida Maldita
TTITLE7=Noite de amor
TTITLE8=Viola da meia-noite
TTITLE9=Não consigo te esquecer
TTITLE10=Chorei sim
TTITLE11=Viola Sentida
EXTD=
EXTT0=
EXTT1=
EXTT2=
EXTT3=
EXTT4=
EXTT5=
EXTT6=
EXTT7=
EXTT8=
EXTT9=
EXTT10=
EXTT11=
PLAYORDER=
